{"title":"The Heat 2013 SDTV XviD Mp3-KingStoner","uid":8800500,"size":732168123,"categoryP":"video","categoryS":"movies","magnet":"?xt=urn:btih:7c2128a115c61afbff4cd0db1a84c466337ab2d4&amp;dn=The+Heat+2013+SDTV+XviD+Mp3-KingStoner&amp;tr=udp%3A%2F%2Ftracker.openbittorrent.com%3A80&amp;tr=udp%3A%2F%2Fopen.demonii.com%3A1337&amp;tr=udp%3A%2F%2Ftracker.coppersurfer.tk%3A6969&amp;tr=udp%3A%2F%2Fexodus.desync.com%3A6969","seeders":3,"leechers":1,"uploader":"srkfan","files":-1,"time":1376188223,"description":"[b]SilverTorrent - Clean And Verified Torrents Download[/b]\n\n------------------------------------------------------ &lt;a href=&quot;\nhttp://img710.imageshack.us/img710/5216/9ia2.jpg&quot; rel=&quot;nofollow&quot; target=&quot;_NEW&quot;&gt;\nhttp://img710.imageshack.us/img710/5216/9ia2.jpg&lt;/a&gt;\n\nInfomation\n &lt;a href=&quot;\nhttp://www.imdb.com/title/tt2404463/&quot; rel=&quot;nofollow&quot; target=&quot;_NEW&quot;&gt;\nhttp://www.imdb.com/title/tt2404463/&lt;/a&gt;\nRatings: 7.1/10 from 19,871 users   Metascore:  60/100  \nReviews: 164 user  | 178 critic  |  37  from  Metacritic.com \nGenres:  Action |  Comedy |  Crime \nGeneral\nComplete name                            : C:The Heat 2013 SDTV XviD Mp3-KingStonerThe Heat 2013 SDTV XviD Mp3-KingStoner.avi\nFormat                                   : AVI\nFormat/Info                              : Audio Video Interleave\nFile size                                : 698 MiB\nDuration                                 : 1h 52mn\nOverall bit rate                         : 871 Kbps\nWriting application                      : MEncoder SVN-r33883(20110719-gcc4.5.2)\nWriting library                          : MPlayer\n\nVideo\nID                                       : 0\nFormat                                   : MPEG-4 Visual\nFormat profile                           : Advanced Simple@L5\nFormat settings, BVOP                    : 2\nFormat settings, QPel                    : No\nFormat settings, GMC                     : No warppoints\nFormat settings, Matrix                  : Default (H.263)\nCodec ID                                 : XVID\nCodec ID/Hint                            : XviD\nDuration                                 : 1h 52mn\nBit rate                                 : 731 Kbps\nWidth                                    : 544 pixels\nHeight                                   : 304 pixels\nDisplay aspect ratio                     : 16:9\nFrame rate                               : 25.000 fps\nColor space                              : YUV\nChroma subsampling                       : 4:2:0\nBit depth                                : 8 bits\nScan type                                : Progressive\nCompression mode                         : Lossy\nBits/(Pixel*Frame)                       : 0.177\nStream size                              : 586 MiB (84%)\nWriting library                          : XviD 1.2.1 (UTC 2008-12-04)\n\nAudio\nID                                       : 1\nFormat                                   : MPEG Audio\nFormat version                           : Version 1\nFormat profile                           : Layer 3\nMode                                     : Joint stereo\nCodec ID                                 : 55\nCodec ID/Hint                            : MP3\nDuration                                 : 1h 52mn\nBit rate mode                            : Constant\nBit rate                                 : 128 Kbps\nChannel(s)                               : 2 channels\nSampling rate                            : 44.1 KHz\nCompression mode                         : Lossy\nDelay relative to video                  : 40ms\nStream size                              : 103 MiB (15%)\nAlignment                                : Aligned on interleaves\nInterleave, duration                     : 26 ms (0.65 video frame)\nInterleave, preload duration             : 522 ms\nWriting library                          : LAME\u0004\n\n\n\nCast\nDirector: Paul Feig\nWriter: Katie Dippold\nStars: Sandra Bullock, Melissa McCarthy, Demi n Bichir \n\nPlot\nAn uptight FBI Special Agent is paired with a foul-mouthed Boston cop to take down a ruthless drug lord \n &lt;a href=&quot;\nhttp://img694.imageshack.us/img694/2245/xbg0.jpg&quot; rel=&quot;nofollow&quot; target=&quot;_NEW&quot;&gt;\nhttp://img694.imageshack.us/img694/2245/xbg0.jpg&lt;/a&gt; &lt;a href=&quot;\nhttp://img853.imageshack.us/img853/1108/h2si.jpg&quot; rel=&quot;nofollow&quot; target=&quot;_NEW&quot;&gt;\nhttp://img853.imageshack.us/img853/1108/h2si.jpg&lt;/a&gt; &lt;a href=&quot;\nhttp://img4.imageshack.us/img4/5928/z00o.jpg&quot; rel=&quot;nofollow&quot; target=&quot;_NEW&quot;&gt;\nhttp://img4.imageshack.us/img4/5928/z00o.jpg&lt;/a&gt; &lt;a href=&quot;\nhttp://img706.imageshack.us/img706/2844/fhen.jpg&quot; rel=&quot;nofollow&quot; target=&quot;_NEW&quot;&gt;\nhttp://img706.imageshack.us/img706/2844/fhen.jpg&lt;/a&gt; &lt;a href=&quot;\nhttp://img850.imageshack.us/img850/8017/758r.jpg&quot; rel=&quot;nofollow&quot; target=&quot;_NEW&quot;&gt;\nhttp://img850.imageshack.us/img850/8017/758r.jpg&lt;/a&gt;","torrent":{"xt":"urn:btih:7c2128a115c61afbff4cd0db1a84c466337ab2d4","amp;dn":"The+Heat+2013+SDTV+XviD+Mp3-KingStoner","amp;tr":["udp%3A%2F%2Ftracker.openbittorrent.com%3A80","udp%3A%2F%2Fopen.demonii.com%3A1337","udp%3A%2F%2Ftracker.coppersurfer.tk%3A6969","udp%3A%2F%2Fexodus.desync.com%3A6969"],"infoHash":"7c2128a115c61afbff4cd0db1a84c466337ab2d4","infoHashBuffer":{"type":"Buffer","data":[124,33,40,161,21,198,26,251,255,76,208,219,26,132,196,102,51,122,178,212]},"announce":[],"urlList":[]}}